<svg xmlns="http://www.w3.org/2000/svg" viewBox="0 0 559.34 468"><defs><style>.cls-1{fill:#fdfefe;}</style></defs><g id="Layer_2" data-name="Layer 2"><g id="Layer_1-2" data-name="Layer 1"><rect width="559.34" height="468" rx="5.32"/><path class="cls-1" d="M416.34,323.67V270.76l69.25-40.13L416.34,190.8V138.19l127.21,73.42V250Z"/><path class="cls-1" d="M15.09,250V211.61l127.22-73.42V190.8L73.05,230.63l69.26,40.13v52.91Z"/><text/><path class="cls-1" d="M200.34,320.16a43.64,43.64,0,0,1-15.68-15.68,42,42,0,0,1-5.82-21.82V181.77a41.46,41.46,0,0,1,5.82-21.5,45,45,0,0,1,15.68-15.85,41.33,41.33,0,0,1,21.82-6h109V77h38.48V326H222.16A42.13,42.13,0,0,1,200.34,320.16Zm23.44-32.66H325a6.06,6.06,0,0,0,6.14-6.14v-98.3a6.08,6.08,0,0,0-6.14-6.14H223.78a6.08,6.08,0,0,0-6.14,6.14v98.3a6.06,6.06,0,0,0,6.14,6.14Z"/></g></g></svg>